<?xml version="1.0" encoding="UTF-8"?><svg id="uuid-5eefd4e3-9196-4c31-8692-c86fb6416964" xmlns="http://www.w3.org/2000/svg" viewBox="0 0 24.95 24.95"><g id="uuid-59f70300-be91-488a-b073-82975748ca65"><g><path d="M23.1,0H1.84C.83,0,0,.81,0,1.8V23.15c0,.99,.83,1.8,1.84,1.8H23.11c1.02,0,1.85-.81,1.85-1.8V1.8c0-.99-.83-1.8-1.85-1.8Z" fill="#0177b5" opacity=".2"/><path d="M3.7,9.35h3.71v11.91H3.7V9.35Zm1.85-5.93c1.18,0,2.14,.96,2.14,2.14s-.96,2.15-2.14,2.15c-1.18,0-2.14-.96-2.15-2.15,0-1.18,.96-2.14,2.14-2.14,0,0,0,0,0,0m4.17,5.93h3.55v1.63h.05c.49-.94,1.7-1.92,3.51-1.92,3.75,0,4.44,2.47,4.44,5.67v6.53h-3.7v-5.79c0-1.38-.02-3.16-1.92-3.16s-2.22,1.5-2.22,3.06v5.89h-3.7V9.35h0Z" fill="#fff" opacity=".56"/></g></g></svg>