<?xml version="1.0" encoding="UTF-8"?>
<svg id="Layer_2" data-name="Layer 2" xmlns="http://www.w3.org/2000/svg" viewBox="0 0 25.89 24.95">
  <defs>
    <style>
      .cls-1 {
        fill: #010b1b;
      }

      .cls-1, .cls-2 {
        stroke-width: 0px;
      }

      .cls-2 {
        fill: #fcfdfd;
      }
    </style>
  </defs>
  <g id="obj">
    <g>
      <path class="cls-1" d="M12.93,24.95c-2.71,0-5.43,0-8.14,0-.65,0-1.28-.06-1.89-.3-.63-.25-1.19-.62-1.66-1.12-.66-.71-1.04-1.54-1.18-2.5-.05-.36-.07-.71-.07-1.07C0,14.88,0,9.8,0,4.71c0-1.06.28-2.02.9-2.88.37-.5.84-.89,1.39-1.2.39-.22.8-.39,1.23-.5C3.91.04,4.31,0,4.72,0c5.21,0,10.43,0,15.64,0,.61,0,1.22-.04,1.82.07.78.14,1.49.44,2.07,1,.32.31.67.6.91.99.24.39.42.8.55,1.25.14.51.18,1.03.18,1.56,0,5.17,0,10.33,0,15.5,0,.77-.15,1.52-.54,2.19-.5.84-1.15,1.55-2.05,1.97-.67.31-1.38.42-2.12.41-2.75,0-5.5,0-8.24,0ZM13.44,15.45c.05-.31.04-.62,0-.93,0-.3-.11-.56-.21-.83-.19-.46-.48-.84-.91-1.12h0s-.01-.01-.01-.01c-.01-.07-.07-.1-.12-.13-.3-.22-.62-.4-.95-.57-.51-.26-1.07-.43-1.59-.67-.35-.16-.68-.36-1.01-.56,0-.03-.02-.04-.05-.05-.24-.31-.43-.63-.22-1.04.06-.12.14-.22.22-.33.01,0,.02,0,.02-.02.15-.06.3-.13.45-.18.47-.17.97-.14,1.46-.13.25,0,.51,0,.76.06.47.11.92.25,1.36.45.19.09.26.03.26-.18,0-.57,0-1.13,0-1.7,0-.13-.05-.25-.16-.31-.32-.16-.65-.27-1.01-.29-.05-.04-.1-.04-.16-.02-.02,0-.05-.02-.07-.03-.7-.13-1.41-.11-2.11-.08-.17,0-.34.02-.49.1-.07-.02-.14-.03-.2.01-.46.09-.91.24-1.28.55h-.02c-.34.19-.63.42-.81.78-.03,0-.04.02-.04.05-.33.4-.5.85-.51,1.37-.03.07-.03.13,0,.2-.03.04-.03.08,0,.12-.04.15-.03.3,0,.45-.05.41.1.77.26,1.12.26.56.73.92,1.23,1.25.25.16.51.33.8.41.02.02.05.03.08.02.37.26.8.39,1.22.55.02.03.05.03.08.02.2.15.44.22.65.34.58.34.98.91.54,1.59-.02,0-.03,0-.02.03-.18.12-.33.29-.57.32-.09.01-.2.04-.28.11-.03-.02-.06-.02-.08,0-.19,0-.39,0-.58,0-.52.03-1.04-.04-1.54-.17-.56-.14-1.08-.36-1.58-.66-.17-.1-.23-.06-.23.14,0,.65,0,1.31,0,1.96,0,.09,0,.19.09.24.3.18.62.3.97.35.04.03.08.03.12.02.09.05.19.09.3.11.8.17,1.62.15,2.43.12.35-.02.71-.07,1.04-.22.03.02.06.01.08-.01.14,0,.27-.07.4-.12.77-.33,1.39-.83,1.77-1.6.14-.28.26-.57.25-.9ZM15.19,14.01c0,.7,0,1.39,0,2.09,0,.39.09.76.26,1.11.35.71.98,1.02,1.72,1.1.63.07,1.25,0,1.86-.19.14-.05.2-.12.2-.26,0-.44,0-.88,0-1.32,0-.14-.07-.19-.2-.18-.18.01-.36.03-.55.02-.34-.02-.64-.1-.8-.45-.07-.15-.08-.31-.08-.47,0-1.17,0-2.35,0-3.52,0-.17.06-.24.24-.23.4.01.8,0,1.19,0,.2,0,.28-.09.28-.28,0-.49,0-.97,0-1.46,0-.24-.05-.3-.3-.3-.38,0-.77,0-1.15,0-.18,0-.25-.04-.24-.24.04-.68-.02-1.36.08-2.04.03-.18-.07-.25-.24-.21-.15.03-.29.04-.44.06-.47.06-.93.12-1.4.18-.15.02-.22.1-.25.26-.09.57-.13,1.15-.17,1.73-.01.17-.07.22-.24.22-.23,0-.46,0-.69,0-.15,0-.24.07-.24.23,0,.51,0,1.03,0,1.54,0,.17.08.25.25.24.21,0,.42,0,.63,0,.27,0,.27,0,.28.27,0,.7,0,1.4,0,2.11Z"/>
      <g>
        <path class="cls-2" d="M17.85,11.7c.4.01.8,0,1.19,0,.2,0,.28-.09.28-.28,0-.49,0-.97,0-1.46,0-.24-.05-.3-.3-.3-.38,0-.77,0-1.15,0-.18,0-.25-.04-.24-.24.04-.68-.02-1.36.08-2.04.03-.18-.07-.25-.24-.21-.15.03-.29.04-.44.06-.47.06-.93.12-1.4.18-.15.02-.22.1-.25.26-.09.57-.13,1.15-.17,1.73-.01.17-.07.22-.24.22-.23,0-.46,0-.69,0-.15,0-.24.07-.24.23,0,.51,0,1.03,0,1.54,0,.17.08.25.25.24.21,0,.42,0,.63,0,.27,0,.27,0,.28.27,0,.7,0,1.4,0,2.11,0,.7-.01,1.39,0,2.09,0,.39.09.76.26,1.11.35.71.98,1.02,1.72,1.1.63.07,1.25,0,1.86-.19.14-.05.2-.12.2-.26,0-.44,0-.88,0-1.32,0-.14-.07-.19-.2-.18-.18.01-.36.03-.55.02-.34-.02-.64-.1-.8-.45-.07-.15-.08-.31-.08-.47,0-1.17,0-2.35,0-3.52,0-.17.06-.24.24-.23Z"/>
        <path class="cls-2" d="M13.22,13.7c-.19-.46-.48-.84-.91-1.12h0s-.01-.01-.01-.01c-.01-.07-.07-.1-.12-.13-.3-.22-.62-.4-.95-.57-.51-.26-1.07-.43-1.59-.67-.35-.16-.68-.36-1.01-.56,0-.03-.02-.04-.05-.05-.24-.31-.43-.63-.22-1.04.06-.12.14-.22.22-.33.01,0,.02,0,.02-.02.15-.06.3-.13.45-.18.47-.17.97-.14,1.46-.13.25,0,.51,0,.76.06.47.11.92.25,1.36.45.19.09.26.03.26-.18,0-.57,0-1.13,0-1.7,0-.13-.05-.25-.16-.31-.32-.16-.65-.27-1.01-.29-.05-.04-.1-.04-.16-.02-.02,0-.05-.02-.07-.03-.7-.13-1.41-.11-2.11-.08-.17,0-.34.02-.49.1-.07-.02-.14-.03-.2.01-.46.09-.91.24-1.28.55,0,0-.02,0-.02,0-.34.19-.63.42-.81.77-.03,0-.04.02-.04.05-.33.4-.5.85-.51,1.37-.03.07-.03.13,0,.2-.03.04-.03.08,0,.12-.04.15-.03.3,0,.45-.05.41.1.77.26,1.12.26.56.73.92,1.23,1.25.25.16.51.33.8.41.02.02.05.03.08.02.37.26.8.39,1.22.55.02.03.05.03.08.02.2.15.44.22.65.34.58.34.98.91.54,1.59-.02,0-.03,0-.02.03-.18.12-.33.29-.57.32-.09.01-.2.04-.28.11-.03-.02-.06-.02-.08,0-.19,0-.39,0-.58,0-.52.03-1.04-.04-1.54-.17-.56-.14-1.08-.36-1.58-.66-.17-.1-.23-.06-.23.14,0,.65,0,1.31,0,1.96,0,.09,0,.19.09.24.3.18.62.3.97.35.04.03.08.03.12.02.09.05.19.09.3.11.8.17,1.62.15,2.43.12.35-.02.71-.07,1.04-.22.03.02.06.01.08-.01.14,0,.27-.07.4-.12.77-.33,1.39-.83,1.77-1.6.14-.28.26-.57.25-.9.05-.31.04-.62,0-.93,0-.3-.11-.56-.21-.83Z"/>
      </g>
    </g>
  </g>
</svg>