<?xml version="1.0" encoding="UTF-8"?><svg id="uuid-6ef66e7f-0cac-41ff-8526-0f9478aaf8ce" xmlns="http://www.w3.org/2000/svg" viewBox="0 0 24.47 24.47"><g id="uuid-9368f22b-f704-49a1-836e-276bacd5d38e"><g><circle id="uuid-f7748535-75a1-42c9-808e-d7c6a9973795" cx="12.23" cy="12.23" r="12.23" fill="#1769ff"/><path id="uuid-624cf561-4510-4e2b-a34a-613be8d26d5d" d="M8.64,6.69c.53,0,1.01,.05,1.44,.14s.81,.25,1.12,.46,.55,.49,.72,.85,.26,.79,.26,1.3c0,.56-.13,1.02-.38,1.4s-.63,.68-1.13,.92c.68,.2,1.19,.54,1.53,1.03s.51,1.08,.51,1.78c0,.56-.11,1.04-.33,1.45s-.51,.74-.88,1c-.37,.26-.79,.45-1.26,.57-.47,.12-.96,.19-1.45,.19H3.43V6.69h5.22Zm-.31,4.49c.43,0,.79-.1,1.07-.31,.28-.21,.42-.54,.42-1.01,0-.26-.05-.47-.14-.64s-.22-.3-.37-.39c-.16-.09-.33-.16-.54-.19-.21-.04-.42-.05-.63-.05h-2.28v2.59h2.47s0,0,0,0Zm.14,4.7c.23,0,.46-.02,.68-.07,.22-.05,.41-.12,.57-.23,.17-.11,.3-.26,.4-.44,.1-.19,.15-.42,.15-.71,0-.57-.16-.98-.48-1.22-.32-.24-.75-.37-1.27-.37h-2.66v3.04h2.61s0,0,0,0Zm7.31-.23c.33,.32,.81,.48,1.43,.48,.45,0,.83-.11,1.15-.33s.52-.46,.59-.71h1.94c-.31,.96-.79,1.65-1.43,2.07-.64,.41-1.42,.62-2.33,.62-.63,0-1.2-.1-1.71-.3s-.94-.49-1.29-.86-.62-.82-.82-1.33-.29-1.09-.29-1.71,.1-1.16,.29-1.68,.48-.97,.84-1.34,.79-.68,1.3-.89,1.06-.33,1.67-.33c.68,0,1.28,.13,1.79,.4,.51,.26,.92,.62,1.25,1.06,.33,.45,.56,.95,.71,1.52s.2,1.16,.16,1.79h-5.79c.03,.71,.21,1.23,.54,1.55h0Zm2.49-4.22c-.26-.29-.67-.43-1.2-.43-.35,0-.64,.06-.88,.18-.23,.12-.42,.27-.56,.44-.14,.18-.24,.36-.29,.56-.06,.2-.09,.37-.1,.53h3.59c-.1-.56-.29-.98-.55-1.27h0Zm-3.41-4.17h4.48v1.24h-4.48v-1.24Z" fill="#fff"/></g></g></svg>