<?xml version="1.0" encoding="UTF-8"?>
<svg id="Layer_2" data-name="Layer 2" xmlns="http://www.w3.org/2000/svg" viewBox="0 0 25.01 24.39">
  <defs>
    <style>
      .cls-1 {
        opacity: .2;
      }

      .cls-2 {
        fill-rule: evenodd;
      }

      .cls-2, .cls-3 {
        fill: #fff;
        stroke-width: 0px;
      }
    </style>
  </defs>
  <g id="obj">
    <g class="cls-1">
      <path class="cls-2" d="M12.51,0C5.6,0,0,5.6,0,12.51c0,5.53,3.58,10.21,8.55,11.87.62.12.85-.27.85-.6,0-.3-.01-1.28-.02-2.33-3.48.76-4.21-1.48-4.21-1.48-.57-1.45-1.39-1.83-1.39-1.83-1.13-.78.09-.76.09-.76,1.26.09,1.92,1.29,1.92,1.29,1.12,1.91,2.93,1.36,3.64,1.04.11-.81.44-1.36.79-1.67-2.78-.32-5.7-1.39-5.7-6.18,0-1.37.49-2.48,1.29-3.36-.13-.31-.56-1.59.12-3.31,0,0,1.05-.34,3.44,1.28,1-.28,2.07-.42,3.13-.42,1.06,0,2.13.14,3.13.42,2.39-1.62,3.44-1.28,3.44-1.28.68,1.72.25,2.99.12,3.31.8.88,1.29,1.99,1.29,3.36,0,4.8-2.93,5.86-5.71,6.17.45.39.85,1.15.85,2.32,0,1.67-.01,3.02-.01,3.43,0,.33.23.72.86.6,4.97-1.66,8.55-6.34,8.55-11.87C25.01,5.6,19.41,0,12.51,0h0Z"/>
      <path class="cls-3" d="M4.74,17.96c-.03.06-.13.08-.21.04-.09-.04-.14-.13-.11-.19.03-.06.12-.08.22-.04.09.04.14.13.11.19h0ZM5.24,18.52c-.06.06-.18.03-.26-.06-.08-.09-.1-.2-.04-.26.06-.06.17-.03.26.06.08.09.1.2.04.26h0ZM5.74,19.24c-.08.05-.2,0-.28-.11-.08-.11-.08-.24,0-.3.08-.05.2,0,.28.1.08.11.08.25,0,.3h0ZM6.41,19.94c-.07.08-.21.06-.32-.05-.11-.1-.14-.24-.07-.32.07-.08.22-.05.32.05.11.1.14.24.07.32h0ZM7.34,20.34c-.03.1-.17.14-.31.1-.14-.04-.23-.16-.21-.26.03-.1.17-.14.31-.1.14.04.23.16.2.26ZM8.37,20.42c0,.1-.12.19-.27.19-.15,0-.27-.08-.27-.18,0-.1.12-.19.27-.19.15,0,.27.08.27.18h0ZM9.32,20.25c.02.1-.09.2-.23.23-.14.03-.28-.04-.3-.14-.02-.1.09-.21.23-.23.15-.03.28.04.3.14h0Z"/>
    </g>
  </g>
</svg>