<?xml version="1.0" encoding="UTF-8"?>
<svg id="Layer_2" data-name="Layer 2" xmlns="http://www.w3.org/2000/svg" xmlns:xlink="http://www.w3.org/1999/xlink" viewBox="0 0 98.48 14.43">
  <defs>
    <style>
      .cls-1 {
        fill: url(#linear-gradient);
      }

      .cls-1, .cls-2, .cls-3 {
        stroke-width: 0px;
      }

      .cls-2 {
        fill: url(#linear-gradient-2);
      }

      .cls-3 {
        fill: #fff;
      }
    </style>
    <linearGradient id="linear-gradient" x1="0" y1="7.21" x2="11.32" y2="7.21" gradientUnits="userSpaceOnUse">
      <stop offset="0" stop-color="#f20aaf"/>
      <stop offset="1" stop-color="#98127d"/>
    </linearGradient>
    <linearGradient id="linear-gradient-2" x1="87.16" y1="7.21" x2="98.48" y2="7.21" gradientUnits="userSpaceOnUse">
      <stop offset="0" stop-color="#0168df"/>
      <stop offset=".44" stop-color="#113cc4"/>
      <stop offset="1" stop-color="#28009e"/>
    </linearGradient>
  </defs>
  <g id="q">
    <g>
      <g>
        <path class="cls-3" d="M12.98,9.09c0-.39.11-.73.34-1.01s.53-.5.93-.66c.4-.15.85-.23,1.37-.23.3,0,.62.02.95.07.33.05.62.12.88.22v-.53c0-.52-.16-.94-.47-1.25s-.74-.47-1.3-.47c-.34,0-.67.06-.99.19-.32.12-.66.31-1.01.55l-.31-.58c.41-.28.81-.49,1.2-.63.39-.14.79-.21,1.2-.21.77,0,1.38.22,1.82.66.45.44.67,1.04.67,1.81v2.87c0,.11.02.19.07.24s.12.08.23.09v.65c-.09,0-.16.02-.23.02s-.11,0-.14,0c-.2,0-.35-.07-.46-.19s-.16-.25-.17-.38v-.46c-.29.36-.66.64-1.1.83-.45.2-.9.29-1.37.29-.4,0-.76-.09-1.09-.26-.32-.17-.58-.4-.76-.69-.18-.29-.27-.61-.27-.96ZM17.17,9.57c.09-.11.16-.22.2-.32s.07-.19.07-.27v-.9c-.27-.1-.55-.18-.85-.24-.29-.06-.59-.08-.88-.08-.58,0-1.06.11-1.42.34-.36.23-.54.54-.54.94,0,.23.06.45.18.65s.3.37.53.5.5.2.82.2c.39,0,.76-.08,1.1-.23.34-.15.6-.34.79-.58Z"/>
        <path class="cls-3" d="M25.28,10.88h-.82v-3.47c0-.73-.11-1.27-.32-1.6-.22-.34-.56-.51-1.02-.51-.32,0-.64.08-.95.23s-.59.36-.82.63c-.24.27-.41.57-.51.91v3.81h-.82v-6.23h.74v1.42c.17-.3.39-.57.66-.79.27-.23.58-.4.92-.53.34-.13.7-.19,1.07-.19.34,0,.64.06.88.19.24.13.43.31.58.54.14.23.25.52.31.85.06.33.1.7.1,1.1v3.64Z"/>
        <path class="cls-3" d="M26.52,9.09c0-.39.11-.73.34-1.01s.53-.5.93-.66c.4-.15.85-.23,1.37-.23.3,0,.62.02.95.07.33.05.62.12.88.22v-.53c0-.52-.16-.94-.47-1.25s-.74-.47-1.3-.47c-.34,0-.67.06-.99.19-.32.12-.66.31-1.01.55l-.31-.58c.41-.28.81-.49,1.2-.63.39-.14.79-.21,1.2-.21.77,0,1.38.22,1.82.66.45.44.67,1.04.67,1.81v2.87c0,.11.02.19.07.24s.12.08.23.09v.65c-.09,0-.16.02-.23.02s-.11,0-.14,0c-.2,0-.35-.07-.46-.19s-.16-.25-.17-.38v-.46c-.29.36-.66.64-1.1.83-.45.2-.9.29-1.37.29-.4,0-.76-.09-1.09-.26-.32-.17-.58-.4-.76-.69-.18-.29-.27-.61-.27-.96ZM30.7,9.57c.09-.11.16-.22.2-.32s.07-.19.07-.27v-.9c-.27-.1-.55-.18-.85-.24-.29-.06-.59-.08-.88-.08-.58,0-1.06.11-1.42.34-.36.23-.54.54-.54.94,0,.23.06.45.18.65s.3.37.53.5.5.2.82.2c.39,0,.76-.08,1.1-.23.34-.15.6-.34.79-.58Z"/>
        <path class="cls-3" d="M36.68,5.35c-.54.02-1.02.17-1.43.46-.41.29-.7.68-.87,1.19v3.89h-.82v-6.23h.77v1.48c.22-.44.5-.8.86-1.07s.73-.42,1.13-.46c.08,0,.15-.01.21-.01s.11,0,.15.01v.74Z"/>
        <path class="cls-3" d="M45.49,10.88V3.94l-3.08,5.39h-.53l-3.1-5.39v6.94h-.84V2.36h.86l3.32,5.83,3.35-5.83h.85v8.52h-.84Z"/>
        <path class="cls-3" d="M48.24,8.31v-3.66h.82v3.51c0,.71.12,1.24.37,1.59.24.35.61.53,1.09.53.32,0,.63-.07.93-.21.3-.14.57-.34.8-.6.23-.26.41-.56.53-.9v-3.92h.82v5.25c0,.11.02.19.07.24s.12.08.22.09v.65c-.1,0-.17.01-.23.02-.06,0-.11,0-.16,0-.16-.02-.3-.08-.41-.19-.12-.11-.18-.25-.19-.41l-.02-.84c-.27.48-.64.85-1.11,1.12-.47.27-.97.41-1.52.41-.66,0-1.15-.23-1.49-.68-.34-.45-.5-1.12-.5-2.01Z"/>
        <path class="cls-3" d="M57.48,11c-.51,0-.99-.08-1.43-.25s-.82-.42-1.14-.77l.34-.58c.35.33.71.57,1.06.71.36.15.73.22,1.13.22.49,0,.88-.1,1.19-.29.3-.19.46-.47.46-.84,0-.25-.07-.44-.22-.57s-.36-.24-.64-.32c-.28-.08-.61-.17-.99-.27-.43-.12-.79-.24-1.09-.38-.29-.13-.51-.3-.66-.5-.15-.2-.22-.47-.22-.79,0-.41.1-.74.31-1.01.2-.27.48-.47.84-.61.36-.14.75-.21,1.19-.21.48,0,.9.08,1.27.23.37.15.67.36.9.64l-.4.55c-.22-.26-.49-.45-.8-.57s-.65-.19-1.03-.19c-.26,0-.5.03-.73.1-.23.07-.42.18-.57.33-.15.15-.22.37-.22.64,0,.22.06.4.17.52.11.12.28.23.5.31.22.08.5.17.83.27.47.13.88.26,1.24.39.35.13.62.3.82.51.19.21.29.5.29.87,0,.58-.22,1.03-.66,1.36-.44.33-1.02.49-1.74.49Z"/>
        <path class="cls-3" d="M60.72,9.09c0-.39.11-.73.34-1.01s.53-.5.93-.66c.4-.15.85-.23,1.37-.23.3,0,.62.02.95.07.33.05.62.12.88.22v-.53c0-.52-.16-.94-.47-1.25s-.74-.47-1.3-.47c-.34,0-.67.06-.99.19-.32.12-.66.31-1.01.55l-.31-.58c.41-.28.81-.49,1.2-.63.39-.14.79-.21,1.2-.21.77,0,1.38.22,1.82.66.45.44.67,1.04.67,1.81v2.87c0,.11.02.19.07.24s.12.08.23.09v.65c-.09,0-.16.02-.23.02s-.11,0-.14,0c-.2,0-.35-.07-.46-.19s-.16-.25-.17-.38v-.46c-.29.36-.66.64-1.1.83-.45.2-.9.29-1.37.29-.4,0-.76-.09-1.09-.26-.32-.17-.58-.4-.76-.69-.18-.29-.27-.61-.27-.96ZM64.9,9.57c.09-.11.16-.22.2-.32s.07-.19.07-.27v-.9c-.27-.1-.55-.18-.85-.24-.29-.06-.59-.08-.88-.08-.58,0-1.06.11-1.42.34-.36.23-.54.54-.54.94,0,.23.06.45.18.65s.3.37.53.5.5.2.82.2c.39,0,.76-.08,1.1-.23.34-.15.6-.34.79-.58Z"/>
        <path class="cls-3" d="M67.93,12.8c.11,0,.22.01.32.02s.18,0,.23-.02c.1-.02.19-.07.28-.17s.19-.28.31-.55.29-.67.5-1.2l-2.72-6.24h.86l2.29,5.4,2.11-5.4h.82l-3.24,8.04c-.06.15-.14.29-.25.42-.11.13-.25.24-.41.31s-.37.12-.61.13c-.07,0-.15.01-.22,0-.08,0-.17-.01-.27-.03v-.73Z"/>
        <path class="cls-3" d="M76.54,11c-.45,0-.86-.09-1.25-.26-.38-.17-.72-.41-1-.71-.28-.3-.5-.64-.65-1.03-.16-.39-.23-.81-.23-1.26,0-.58.13-1.11.4-1.6.27-.48.64-.87,1.11-1.16s1.01-.44,1.61-.44,1.15.15,1.61.44c.46.29.82.68,1.09,1.16.26.48.4,1.01.4,1.58v.18c0,.06,0,.11-.01.14h-5.35c.04.45.17.84.38,1.19.21.35.49.62.83.82.34.2.71.3,1.11.3s.79-.1,1.16-.31c.36-.21.62-.48.76-.82l.71.19c-.13.3-.32.56-.59.8-.26.24-.57.43-.93.56-.36.13-.74.2-1.15.2ZM74.24,7.47h4.62c-.03-.45-.15-.85-.37-1.19-.21-.34-.49-.61-.83-.8-.34-.19-.71-.29-1.12-.29s-.78.1-1.12.29-.61.46-.82.81c-.21.34-.33.74-.37,1.18Z"/>
        <path class="cls-3" d="M82.58,10.88l-2.53-6.23h.85l2.14,5.42,2.15-5.42h.8l-2.53,6.23h-.88Z"/>
      </g>
      <path class="cls-1" d="M0,7.21L8.23,0h3.09L3.09,7.21l8.23,7.21h-3.09L0,7.21Z"/>
      <path class="cls-2" d="M98.48,7.21l-8.23,7.21h-3.09l8.23-7.21-8.23-7.21h3.09l8.23,7.21Z"/>
    </g>
  </g>
</svg>